<svg t="1659944048292" class="icon" viewBox="0 0 1024 1024" version="1.1" xmlns="http://www.w3.org/2000/svg" p-id="9426" width="16" height="16"><path d="M399.36 327.68h225.28c11.264 0 20.48-9.216 20.48-20.48v-40.96c0-33.792-27.648-61.44-61.44-61.44H440.32c-33.792 0-61.44 27.648-61.44 61.44v40.96c0 11.264 9.216 20.48 20.48 20.48z m337.92-71.68h-20.48c-6.144 0-10.24 4.096-10.24 10.24v40.96c0 45.056-36.864 81.92-81.92 81.92H399.36c-45.056 0-81.92-36.864-81.92-81.92v-40.96c0-6.144-4.096-10.24-10.24-10.24h-20.48c-33.792 0-61.44 27.648-61.44 61.44v440.32c0 33.792 27.648 61.44 61.44 61.44h450.56c33.792 0 61.44-27.648 61.44-61.44V317.44c0-33.792-27.648-61.44-61.44-61.44zM440.32 675.84c0 11.264-9.216 20.48-20.48 20.48h-20.48c-11.264 0-20.48-9.216-20.48-20.48V573.44c0-11.264 9.216-20.48 20.48-20.48h20.48c11.264 0 20.48 9.216 20.48 20.48v102.4z m102.4 0c0 11.264-9.216 20.48-20.48 20.48h-20.48c-11.264 0-20.48-9.216-20.48-20.48V481.28c0-11.264 9.216-20.48 20.48-20.48h20.48c11.264 0 20.48 9.216 20.48 20.48v194.56z m102.4 0c0 11.264-9.216 20.48-20.48 20.48h-20.48c-11.264 0-20.48-9.216-20.48-20.48V522.24c0-11.264 9.216-20.48 20.48-20.48h20.48c11.264 0 20.48 9.216 20.48 20.48v153.6z" p-id="9427"></path></svg>