<?xml version="1.0" standalone="no"?><!DOCTYPE svg PUBLIC "-//W3C//DTD SVG 1.1//EN" "http://www.w3.org/Graphics/SVG/1.1/DTD/svg11.dtd"><svg t="1652406274439" class="icon" viewBox="0 0 1024 1024" version="1.1" xmlns="http://www.w3.org/2000/svg" p-id="2149" xmlns:xlink="http://www.w3.org/1999/xlink" width="16" height="16"><defs><style type="text/css">html, * { user-select: text !important; }
@font-face { font-family: feedback-iconfont; src: url("//at.alicdn.com/t/font_1031158_u69w8yhxdu.woff2?t=1630033759944") format("woff2"), url("//at.alicdn.com/t/font_1031158_u69w8yhxdu.woff?t=1630033759944") format("woff"), url("//at.alicdn.com/t/font_1031158_u69w8yhxdu.ttf?t=1630033759944") format("truetype"); }
</style></defs><path d="M870.43 210.77c-1.06-17.43-8.77-41.65-36.96-65.37-19.41-16.34-46.32-30.69-79.98-42.67-65.14-23.19-151.1-35.96-242.04-35.96s-176.9 12.77-242.04 35.96c-33.66 11.98-60.57 26.34-79.98 42.67-28.19 23.72-35.9 47.94-36.96 65.37h-0.14v601.01c0 17.6 6.44 44 37.1 69.81 19.41 16.34 46.32 30.69 79.98 42.67 65.14 23.19 151.1 35.96 242.04 35.96s176.9-12.77 242.04-35.96c33.66-11.98 60.57-26.34 79.98-42.67 30.67-25.81 37.1-52.2 37.1-69.81V210.77h-0.14z m-63.86 601.02c0 8.87-15.58 31.2-74.54 52.18-58.43 20.8-136.77 32.25-220.58 32.25s-162.15-11.45-220.58-32.25c-58.96-20.99-74.54-43.31-74.54-52.18V701.27c15.17 8.81 32.9 16.85 53.08 24.03 65.14 23.19 151.1 35.96 242.04 35.96s176.9-12.77 242.04-35.96c20.18-7.18 37.92-15.23 53.08-24.03v110.52z m0-198.96c0 8.87-15.58 31.2-74.54 52.18-58.43 20.8-136.77 32.25-220.58 32.25s-162.15-11.45-220.58-32.25c-58.96-20.99-74.54-43.31-74.54-52.18v-110.9c15.17 8.81 32.9 16.85 53.08 24.03 65.14 23.19 151.1 35.96 242.04 35.96s176.9-12.77 242.04-35.96c20.18-7.18 37.92-15.23 53.08-24.03v110.9z m0-199.35c0 8.87-15.58 31.2-74.54 52.18-58.43 20.8-136.77 32.25-220.58 32.25s-162.15-11.45-220.58-32.25c-58.96-20.99-74.54-43.31-74.54-52.18V303.65c15.17 8.81 32.9 16.85 53.08 24.03 65.14 23.19 151.1 35.96 242.04 35.96s176.9-12.77 242.04-35.96c20.18-7.18 37.92-15.23 53.08-24.03v109.83z m-74.55-146.09c-58.43 20.8-136.77 32.25-220.58 32.25s-162.15-11.45-220.58-32.25c-58.96-20.99-74.54-43.31-74.54-52.18s15.58-31.2 74.54-52.18c58.43-20.8 136.77-32.25 220.58-32.25s162.15 11.45 220.58 32.25c58.96 20.99 74.54 43.31 74.54 52.18s-15.57 31.19-74.54 52.18z" fill="#333333" p-id="2150"></path></svg>