<svg t="1659944423071" class="icon" viewBox="0 0 1024 1024" version="1.1" xmlns="http://www.w3.org/2000/svg" p-id="23152" width="16" height="16"><path d="M170.666667 170.666667m85.333333 0l554.666667 0q85.333333 0 85.333333 85.333333l0 384q0 85.333333-85.333333 85.333333l-554.666667 0q-85.333333 0-85.333333-85.333333l0-384q0-85.333333 85.333333-85.333333Z" fill="#666666" p-id="23153"></path><path d="M512 640H256v221.44a37.12 37.12 0 0 0 62.72 26.453333L512 701.44z" fill="#666666" p-id="23154"></path><path d="M298.666667 341.333333m21.333333 0l426.666667 0q21.333333 0 21.333333 21.333334l0 0q0 21.333333-21.333333 21.333333l-426.666667 0q-21.333333 0-21.333333-21.333333l0 0q0-21.333333 21.333333-21.333334Z" fill="#F2F2F2" p-id="23155"></path><path d="M298.666667 512m21.333333 0l426.666667 0q21.333333 0 21.333333 21.333333l0 0q0 21.333333-21.333333 21.333334l-426.666667 0q-21.333333 0-21.333333-21.333334l0 0q0-21.333333 21.333333-21.333333Z" fill="#F2F2F2" p-id="23156"></path></svg>